<?xml version="1.0" encoding="UTF-8"?>
<svg version="1.1" xmlns="http://www.w3.org/2000/svg" width="250" height="250">
<path d="M0 0 C8.58 0 17.16 0 26 0 C26 0.66 26 1.32 26 2 C27.10408203 2.16628906 27.10408203 2.16628906 28.23046875 2.3359375 C34.33206375 3.79894335 39.22727925 8.18850906 43.625 12.5 C50.2127144 18.40041349 59.20345648 20.83222824 67.515625 23.42578125 C86.23539781 29.28179165 101.16856874 38.41908763 111 56 C112.28773632 58.95867444 113.24285548 61.86698817 114 65 C114.226875 65.804375 114.45375 66.60875 114.6875 67.4375 C115.68618546 75.6267208 114.50516191 82.71186056 112.6796875 90.7265625 C111.61276617 95.86495375 111.34645852 99.90866725 112.9375 105 C116.56539065 110.27693185 121.52621677 114.12423344 126.6015625 117.97265625 C132.36758995 122.35379191 136.60848279 126.56003813 140 133 C140.3398291 133.64171143 140.6796582 134.28342285 141.02978516 134.94458008 C143.83369339 140.64677688 144.70656849 145.48695552 144.625 151.8125 C144.61879639 152.68471191 144.61259277 153.55692383 144.60620117 154.45556641 C144.25638116 165.08812384 139.72934209 172.13572628 133 180 C133.40992188 181.05058594 133.81984375 182.10117188 134.2421875 183.18359375 C141.51378683 202.03630417 141.51378683 202.03630417 141 210 C139.08886719 209.74438477 139.08886719 209.74438477 137 209 C136.12207031 207.30444336 136.12207031 207.30444336 135.578125 205.08984375 C135.3618042 204.27265869 135.1454834 203.45547363 134.92260742 202.61352539 C134.70064697 201.73043701 134.47868652 200.84734863 134.25 199.9375 C128.78041568 180.15416002 118.2976038 164.50635832 105 149 C104.21882812 148.071875 103.43765625 147.14375 102.6328125 146.1875 C96.70141805 139.36544887 90.43058301 134.12629019 83 129 C82.07445312 128.31292969 81.14890625 127.62585938 80.1953125 126.91796875 C76.29257961 124.5753748 72.49410526 123.42743684 68.125 122.25 C66.949375 121.91935547 66.949375 121.91935547 65.75 121.58203125 C63.83597707 121.04517116 61.91833548 120.52124038 60 120 C59.41992188 120.85722656 58.83984375 121.71445313 58.2421875 122.59765625 C46.0568853 140.48860853 46.0568853 140.48860853 40 143 C34.94422721 143.54168994 32.03217306 143.10167159 28 140 C25.9249457 138.05834205 23.96523533 136.05664163 22 134 C22.01160156 134.66386719 22.02320312 135.32773438 22.03515625 136.01171875 C22.12478032 144.78207381 22.12478032 144.78207381 21 149 C22.485 149.99 22.485 149.99 24 151 C24 152.32 24 153.64 24 155 C23.34 155.33 22.68 155.66 22 156 C22.66 156.99 23.32 157.98 24 159 C24.39013716 160.9896995 24.73202649 162.99019869 25 165 C25.4125 164.55269531 25.825 164.10539063 26.25 163.64453125 C30.96111689 158.71258076 35.92860933 153.81427813 42.8125 152.4375 C45.71165754 153.18299765 46.50305499 154.47882946 48 157 C48.66 156.67 49.32 156.34 50 156 C53 155.8125 53 155.8125 56 156 C58 158 58 158 58.1875 160.5625 C58 163 58 163 57 164 C57.9590625 164.3403125 57.9590625 164.3403125 58.9375 164.6875 C61 166 61 166 61.875 168.3125 C62.01837615 171.39508723 61.33691415 173.24752969 60 176 C60.66 176.66 61.32 177.32 62 178 C62.01274384 180.99904955 61.72551489 183.11231806 59.78759766 185.48339844 C58.17897564 187.01596145 56.51800086 188.45113719 54.8125 189.875 C47.51940263 196.17319681 47.51940263 196.17319681 42 204 C42 204.99 42 205.98 42 207 C44.92344852 209.26331498 47.88073094 210.29109828 51.375 211.3125 C54.87884031 212.39149718 56.98353592 213.6531223 59.625 216.1875 C62.25033361 218.64988186 62.635677 218.98012784 66.4375 219.1875 C67.613125 219.125625 68.78875 219.06375 70 219 C73.4837452 219.98811682 76.76479152 221.38239576 80 223 C81.67654729 222.72057545 83.34608154 222.39171753 85 222 C84.9690625 220.14375 84.9690625 220.14375 84.9375 218.25 C84.91602686 215.80635623 84.95297272 214.13716289 85.75 211.8125 C86.25113381 209.74319937 86.25113381 209.74319937 84.1875 207.5625 C83.465625 206.716875 82.74375 205.87125 82 205 C79.74647304 200.73015944 78.89664358 195.81468647 79 191 C79.984375 188.72265625 79.984375 188.72265625 81 187 C81.99 187.33 82.98 187.66 84 188 C84.10957031 188.96421875 84.21914062 189.9284375 84.33203125 190.921875 C84.49058594 192.18515625 84.64914063 193.4484375 84.8125 194.75 C85.03873047 196.62945312 85.03873047 196.62945312 85.26953125 198.546875 C85.98909049 201.94842775 86.59768942 203.55058529 89 206 C91.58498512 207.26847685 91.58498512 207.26847685 94 208 C93.72285156 208.59167969 93.44570312 209.18335938 93.16015625 209.79296875 C90.44225847 215.69046431 90.44225847 215.69046431 89 222 C90.11375 222.28875 91.2275 222.5775 92.375 222.875 C96 224 96 224 98 226 C97.625 228.625 97.625 228.625 97 231 C93.06358515 231.17892795 90.35681196 231.15795055 87 229 C86.34 228.34 85.68 227.68 85 227 C84.34 227 83.68 227 83 227 C83 228.65 83 230.3 83 232 C81.68 232 80.36 232 79 232 C77.26526288 230.05874656 75.5954349 228.05727132 74 226 C70.5131819 224.25659095 68.87079464 224.17507655 65 225 C62.89100383 227.86572728 61.29035996 230.84769121 59.62890625 233.9921875 C57.73955031 237.48092629 56.18998474 239.6721733 53 242 C50.6875 241.8125 50.6875 241.8125 49 241 C50.93950489 236.80097192 53.62717744 233.25893262 56.34375 229.53515625 C57.94781549 227.07987677 59.01472757 224.75383644 60 222 C59.42765625 221.72414062 58.8553125 221.44828125 58.265625 221.1640625 C56.01035733 220.00532152 53.89143622 218.73124294 51.75 217.375 C51.04359375 216.92898437 50.3371875 216.48296875 49.609375 216.0234375 C49.07828125 215.68570313 48.5471875 215.34796875 48 215 C47.89042969 215.73605469 47.78085938 216.47210938 47.66796875 217.23046875 C46.17093848 223.4374539 41.85115064 227.94424327 36.5625 231.32421875 C26.78629874 237.14487963 26.78629874 237.14487963 22 238 C25.32086771 240.77000825 25.32086771 240.77000825 29 243 C29 243.99 29 244.98 29 246 C24.95019658 246.39703955 22.78440653 246.60791506 19.5 244.0625 C18.10856198 242.35798842 16.73193034 240.63992618 15.41796875 238.875 C11.90146041 234.17573829 8.60232822 230.76429842 3.796875 227.40234375 C-0.02247737 224.42158831 -2.09416855 220.67544719 -3 216 C-4.1700122 199.40196492 -3.87919619 182.60770986 5 168 C8.22373677 165.85084215 9.26703674 165.61713197 13 166 C15.76223278 168.76223278 15.57856291 171.20706617 16 175 C17.6867443 171.31861363 18.27227584 168.41806576 18.25 164.375 C18.25515625 163.43398437 18.2603125 162.49296875 18.265625 161.5234375 C18.17167307 158.75424779 18.17167307 158.75424779 16 156 C15.77294922 153.1809082 15.77294922 153.1809082 15.8046875 149.80078125 C15.81113281 148.59228516 15.81757812 147.38378906 15.82421875 146.13867188 C15.84935547 144.2447168 15.84935547 144.2447168 15.875 142.3125 C15.88402344 141.03826172 15.89304687 139.76402344 15.90234375 138.45117188 C15.92594359 135.30059373 15.95886806 132.15039017 16 129 C15.34 129 14.68 129 14 129 C13.9175 129.86625 13.835 130.7325 13.75 131.625 C12.62510862 136.68701121 10.18999762 139.81000238 6.5625 143.4375 C4 145 4 145 1.5 145.25 C-3.19717627 142.90141187 -5.39000963 137.8299711 -7 133 C-12.060085 139.84048528 -16.58512914 146.68952782 -20.375 154.3125 C-20.85646484 155.27929688 -20.85646484 155.27929688 -21.34765625 156.265625 C-26.45987845 166.57366514 -26.45987845 166.57366514 -25.45703125 177.71875 C-24.81667296 180.91506831 -24.90735356 183.99418497 -24.9375 187.25 C-24.94652344 188.51328125 -24.95554688 189.7765625 -24.96484375 191.078125 C-24.97644531 192.04234375 -24.98804688 193.0065625 -25 194 C-23.576875 193.9690625 -23.576875 193.9690625 -22.125 193.9375 C-19 194 -19 194 -17 195 C-17 196.32 -17 197.64 -17 199 C-18.98 199 -20.96 199 -23 199 C-22.81050781 199.81726563 -22.62101562 200.63453125 -22.42578125 201.4765625 C-21.915347 205.70052299 -22.41242884 209.22122503 -23.1875 213.375 C-23.32406006 214.12724854 -23.46062012 214.87949707 -23.60131836 215.65454102 C-24.81567276 221.89021362 -26.37478697 227.37478697 -31 232 C-40.12682539 232.439494 -49.77627413 230.34378298 -57 224.625 C-61.01978823 219.34902795 -62.47520935 214.35729979 -63.375 207.875 C-65.12738304 197.01327685 -67.40125819 188.52089226 -76.3828125 181.58984375 C-78 180 -78 180 -78.6875 176.25 C-77.95181777 172.77222944 -77.41708846 172.31637644 -75 170 C-75.020625 169.030625 -75.04125 168.06125 -75.0625 167.0625 C-75 164 -75 164 -73.0625 161.9375 C-72.381875 161.298125 -71.70125 160.65875 -71 160 C-70.20318682 157.35815459 -70.20318682 157.35815459 -70 155 C-69.01 154.67 -68.02 154.34 -67 154 C-67.00902344 153.42894531 -67.01804687 152.85789063 -67.02734375 152.26953125 C-66.8134343 146.41957279 -65.40828779 142.4719379 -62.5 137.375 C-57.48832127 128.57626219 -57.58983924 122.68020683 -60 113 C-61.40386615 108.51971574 -62.97286923 104.10481521 -64.5625 99.6875 C-65.37927068 97.40079774 -66.19318725 95.11307354 -67.00390625 92.82421875 C-67.36299072 91.82479248 -67.7220752 90.82536621 -68.09204102 89.7956543 C-71.11503096 80.48770651 -71.52690029 70.16107817 -67.2890625 61.1953125 C-63.20457094 54.2392996 -57.35046346 50.94752134 -50.5 47.0625 C-37.50565412 39.62513737 -32.5781444 30.12645595 -26 17 C-25.34 17 -24.68 17 -24 17 C-23.7525 16.4121875 -23.505 15.824375 -23.25 15.21875 C-19.26930246 8.15301187 -10.49817783 4.17907334 -3 2 C-2.01 2 -1.02 2 0 2 C0 1.34 0 0.68 0 0 Z M-4.7734375 38.14453125 C-15.33119068 48.97177663 -27.13888667 63.41666001 -32 78 C-25.93629658 77.39502042 -20.34485758 76.1366972 -14.5 74.4375 C-13.67757812 74.20353516 -12.85515625 73.96957031 -12.0078125 73.72851562 C-10.00370942 73.15757928 -8.00163409 72.57953295 -6 72 C-5.92523438 72.69738281 -5.85046875 73.39476562 -5.7734375 74.11328125 C-4.68041569 82.8896034 -2.99222843 91.53292882 -1.1875 100.1875 C-0.95144043 101.3938208 -0.71538086 102.6001416 -0.47216797 103.84301758 C-0.10502686 105.55074341 -0.10502686 105.55074341 0.26953125 107.29296875 C0.48198486 108.3193042 0.69443848 109.34563965 0.91333008 110.40307617 C2.30884 113.73806584 3.74601083 114.53826611 7 116 C19.21824367 117.54997148 29.01583339 114.78477565 38.94140625 107.6015625 C39.96041016 106.80878906 39.96041016 106.80878906 41 106 C41.64839844 105.53335938 42.29679687 105.06671875 42.96484375 104.5859375 C45.00129644 102.78499295 45.99911309 101.54138242 47 99 C47.03732151 93.87451262 46.03124568 88.99766425 45 84 C44.7215262 82.51371563 44.44682377 81.02672 44.17578125 79.5390625 C43.66517924 76.74453056 43.1346746 73.95524388 42.5859375 71.16796875 C42 68 42 68 42 66 C43.4540625 66.0928125 43.4540625 66.0928125 44.9375 66.1875 C49.49112638 66.17820688 53.9890475 65.18927754 58 63 C59.51334548 60.66287624 60.06825083 59.59719479 59.75 56.8125 C59.14991567 54.80184414 59.14991567 54.80184414 57 54 C51.81025359 53.60078874 48.37091302 54.08605799 44 57 C43.03955898 59.07690578 43.03955898 59.07690578 43 61 C39.13083569 59.71027856 38.89134983 58.43567844 37.0625 54.875 C35.34197494 51.5709071 33.61854181 48.31051422 31.6875 45.125 C30.13183059 42.24413072 29.54327958 40.17361337 29 37 C28.31035156 36.95101562 27.62070313 36.90203125 26.91015625 36.8515625 C21.46053021 36.41798457 16.27174866 35.7593076 10.97265625 34.40234375 C5.1140416 33.20741839 -0.10296563 34.53313821 -4.7734375 38.14453125 Z M49 102 C48.53851563 102.58007812 48.07703125 103.16015625 47.6015625 103.7578125 C39.58932292 113.35349864 30.87301786 117.53193637 19 121 C25.00892434 131.72336436 25.00892434 131.72336436 34.4375 139.125 C38.81890326 138.91127301 42.50652007 136.60085431 45.45678711 133.43847656 C46.79325256 131.68643792 48.03401184 129.90003625 49.25 128.0625 C49.67023438 127.45470703 50.09046875 126.84691406 50.5234375 126.22070312 C51.70707689 124.49549289 52.85844776 122.75325585 54 121 C54.59425781 120.10023437 55.18851563 119.20046875 55.80078125 118.2734375 C57.60737836 114.84855307 56.96849528 112.68028208 56 109 C53.51610556 104.31170099 53.51610556 104.31170099 49 102 Z M-1 117 C-1.67667998 118.24460783 -2.34094719 119.49596896 -3 120.75 C-3.37125 121.44609375 -3.7425 122.1421875 -4.125 122.859375 C-5.25224649 125.23167757 -5.25224649 125.23167757 -5 129 C-4.01 129.495 -4.01 129.495 -3 130 C-1.9296875 132.28515625 -1.9296875 132.28515625 -0.875 135.0625 C-0.52179688 135.98160156 -0.16859375 136.90070313 0.1953125 137.84765625 C0.46085937 138.55792969 0.72640625 139.26820313 1 140 C2.93857646 139.72832648 2.93857646 139.72832648 5 139 C8.51971286 133.7737597 12 127.40193249 12 121 C10.2097939 120.32942113 8.41778511 119.6636531 6.625 119 C5.62726563 118.62875 4.62953125 118.2575 3.6015625 117.875 C1.14151939 116.89373723 1.14151939 116.89373723 -1 117 Z M-54 151 C-52.83444813 154.92049266 -51.29536733 158.46541645 -49.5 162.125 C-46.78492258 167.94759966 -45.74225912 173.65202275 -45 180 C-48 179 -48 179 -49.83203125 175.578125 C-50.83656074 173.42128237 -51.81107194 171.2532211 -52.77539062 169.078125 C-55.10779128 164.09256132 -57.3225059 161.00827072 -62 158 C-64.32171592 158.03375833 -64.32171592 158.03375833 -66 159 C-65.46890625 159.556875 -64.9378125 160.11375 -64.390625 160.6875 C-54 171.91240876 -54 171.91240876 -54 179 C-57.51189618 177.82936794 -57.82387897 176.70034235 -59.69140625 173.69921875 C-62.17045339 170.48015754 -65.54951168 168.10614222 -69 166 C-69.66 166 -70.32 166 -71 166 C-69.55461602 169.39514675 -67.72400273 171.35388724 -65 173.8125 C-61.26123051 177.42257996 -59.84882037 179.90707778 -59 185 C-63.28553341 182.85723329 -65.66070112 180.18803701 -68.47265625 176.42578125 C-70.13909385 174.54507676 -70.13909385 174.54507676 -74 175 C-73.40096114 178.6875899 -73.07659541 178.94292891 -69.8125 181.375 C-61.48817274 188.22932286 -59.38101426 200.03868229 -58.02441406 210.22583008 C-57.24250959 215.85327394 -55.86269809 219.37610936 -51.5625 223.125 C-46.51349737 226.24088323 -39.69008974 228.10340006 -33.76953125 227.9375 C-31.73351538 227.08112152 -31.73351538 227.08112152 -30.76953125 224.48046875 C-28.5821918 216.95423547 -27.2824638 209.83837038 -27 202 C-27.33 203.32 -27.66 204.64 -28 206 C-29.32 206 -30.64 206 -32 206 C-31.855625 205.15179688 -31.71125 204.30359375 -31.5625 203.4296875 C-28.61270362 188.6978666 -28.61270362 188.6978666 -32 175 C-32.66 175 -33.32 175 -34 175 C-34.03738281 175.71285156 -34.07476562 176.42570312 -34.11328125 177.16015625 C-34.51629145 183.03146177 -34.99342201 187.87768194 -38 193 C-40.10546875 193.6796875 -40.10546875 193.6796875 -42 194 C-41.525625 192.948125 -41.05125 191.89625 -40.5625 190.8125 C-37.60414971 182.7091927 -36.87334277 174.79882917 -40.0625 166.6875 C-42.87150789 160.76347499 -46.36663037 155.63336963 -51 151 C-51.99 151 -52.98 151 -54 151 Z M42 157 C30.0963782 164.17594222 21.92592445 174.2372732 13.39453125 185.03125 C12.30354712 186.38778159 11.15870991 187.7008404 10 189 C9.34 189 8.68 189 8 189 C8.14308594 188.48953125 8.28617187 187.9790625 8.43359375 187.453125 C9.17536654 184.24048149 9.60897096 181.01540909 10.0625 177.75 C10.23910156 176.48671875 10.41570312 175.2234375 10.59765625 173.921875 C10.73042969 172.95765625 10.86320312 171.9934375 11 171 C8.1260681 172.01609726 7.17190702 172.6500063 5.8046875 175.43359375 C1.63618739 188.90240293 -2.60580861 205.55603094 3.0390625 219.25390625 C4.64186383 222.16631355 6.40874193 223.90494028 9 226 C9.75925781 226.62390625 10.51851562 227.2478125 11.30078125 227.890625 C16.384665 231.83431508 16.384665 231.83431508 22.5 233.3125 C31.52694418 229.92739593 39.19939889 224.98310237 43.375 216.0625 C43.58125 215.381875 43.7875 214.70125 44 214 C40.94419026 211.41222792 40.94419026 211.41222792 37 211 C35.31201173 212.43750191 35.31201173 212.43750191 34 214 C34 202.45658972 44.91328161 192.9834183 52.5625 185.3125 C54.03660339 183.86980825 55.51386193 182.43029155 57 181 C55.00943616 179.7135654 55.00943616 179.7135654 52.79296875 180.70703125 C51.93316406 181.07183594 51.07335937 181.43664062 50.1875 181.8125 C49.33542969 182.16957031 48.48335937 182.52664062 47.60546875 182.89453125 C46.74566406 183.25933594 45.88585937 183.62414062 45 184 C40.25085911 186 40.25085911 186 38 186 C39.28540939 182.14377182 40.76941277 181.6034383 44.1875 179.5 C45.67443359 178.57767578 45.67443359 178.57767578 47.19140625 177.63671875 C50 176 50 176 53.625 174.3125 C56.17571587 173.22998107 56.17571587 173.22998107 56.875 170.8125 C56.91625 170.214375 56.9575 169.61625 57 169 C50.52591441 170.17710647 46.05991123 173.50363272 40.76953125 177.3203125 C38 179 38 179 34 179 C40.24963589 172.54876295 47.06053065 166.69392357 54 161 C52.08049519 159.74661345 52.08049519 159.74661345 50.2578125 160.57421875 C44.18365666 163.7447946 39.82078019 167.87674146 35.25048828 172.8972168 C32.32101402 176.03284653 30.35781058 177.71372047 26 178 C28.16480178 173.53509634 31.20836551 170.97413344 34.92578125 167.84765625 C37.9563823 165.1480813 40.43588143 162.14104525 43 159 C42.505 158.01 42.505 158.01 42 157 Z " fill="#F3F5F8" transform="translate(92,2)"/>
<path d="M0 0 C2.80160004 1.36167153 4.92059652 2.79360521 6.9375 5.1875 C6.9375 5.8475 6.9375 6.5075 6.9375 7.1875 C8.05125 7.2803125 8.05125 7.2803125 9.1875 7.375 C12.88959747 8.46880152 13.84383812 9.97721845 15.9375 13.1875 C18.75901402 18.52822296 19.24739743 22.29944879 18.9375 28.1875 C19.9275 27.6925 19.9275 27.6925 20.9375 27.1875 C25.45978704 26.81682073 27.89840392 26.64630412 31.9375 28.75 C33.9375 31.1875 33.9375 31.1875 34.5625 34.5625 C33.7748713 39.13074649 32.26604412 41.00689118 28.9375 44.1875 C25.4531973 46.10386648 22.8512256 46.25272876 18.9375 46.1875 C19.0779983 48.9795301 19.22465383 51.77099796 19.375 54.5625 C19.41431641 55.3565625 19.45363281 56.150625 19.49414062 56.96875 C19.62643404 61.21351221 19.62643404 61.21351221 20.9375 65.1875 C21.03908687 66.62382545 21.11981427 68.06167829 21.1875 69.5 C21.67011335 74.3031519 23.29977698 75.97276803 26.9375 79.1875 C30.23929006 83.67706272 31.48705922 87.66960045 31.9375 93.1875 C33.29875 93.2803125 33.29875 93.2803125 34.6875 93.375 C45.19117344 94.94208031 53.84473385 100.65687638 61.9375 107.1875 C62.76169434 107.84347168 62.76169434 107.84347168 63.60253906 108.51269531 C77.7337233 119.83500094 88.0907143 133.06814465 97.9375 148.1875 C98.535625 149.1053125 99.13375 150.023125 99.75 150.96875 C100.9375 153.1875 100.9375 153.1875 100.9375 156.1875 C101.9275 156.5175 102.9175 156.8475 103.9375 157.1875 C105.10976744 159.69310979 106.08635024 162.08892634 107 164.6875 C107.26312988 165.41493408 107.52625977 166.14236816 107.79736328 166.8918457 C110.1366048 173.48686006 112.39560397 180.08688848 111.9375 187.1875 C110.02636719 186.93188477 110.02636719 186.93188477 107.9375 186.1875 C107.05957031 184.49194336 107.05957031 184.49194336 106.515625 182.27734375 C106.2993042 181.46015869 106.0829834 180.64297363 105.86010742 179.80102539 C105.63814697 178.91793701 105.41618652 178.03484863 105.1875 177.125 C99.71791568 157.34166002 89.2351038 141.69385832 75.9375 126.1875 C75.15632812 125.259375 74.37515625 124.33125 73.5703125 123.375 C67.63891805 116.55294887 61.36808301 111.31379019 53.9375 106.1875 C53.01195312 105.50042969 52.08640625 104.81335938 51.1328125 104.10546875 C47.23007961 101.7628748 43.43160526 100.61493684 39.0625 99.4375 C37.886875 99.10685547 37.886875 99.10685547 36.6875 98.76953125 C34.77347707 98.23267116 32.85583548 97.70874038 30.9375 97.1875 C30.35742188 98.04472656 29.77734375 98.90195313 29.1796875 99.78515625 C16.9943853 117.67610853 16.9943853 117.67610853 10.9375 120.1875 C5.88172721 120.72918994 2.96967306 120.28917159 -1.0625 117.1875 C-3.1375543 115.24584205 -5.09726467 113.24414163 -7.0625 111.1875 C-7.05089844 111.85136719 -7.03929688 112.51523438 -7.02734375 113.19921875 C-6.93771968 121.96957381 -6.93771968 121.96957381 -8.0625 126.1875 C-6.5775 127.1775 -6.5775 127.1775 -5.0625 128.1875 C-5.0625 129.5075 -5.0625 130.8275 -5.0625 132.1875 C-5.7225 132.5175 -6.3825 132.8475 -7.0625 133.1875 C-6.4025 134.1775 -5.7425 135.1675 -5.0625 136.1875 C-4.67236284 138.1771995 -4.33047351 140.17769869 -4.0625 142.1875 C-3.65 141.74019531 -3.2375 141.29289063 -2.8125 140.83203125 C1.89861689 135.90008076 6.86610933 131.00177813 13.75 129.625 C16.64915754 130.37049765 17.44055499 131.66632946 18.9375 134.1875 C19.5975 133.8575 20.2575 133.5275 20.9375 133.1875 C23.9375 133 23.9375 133 26.9375 133.1875 C28.9375 135.1875 28.9375 135.1875 29.125 137.75 C28.9375 140.1875 28.9375 140.1875 27.9375 141.1875 C28.8965625 141.5278125 28.8965625 141.5278125 29.875 141.875 C31.9375 143.1875 31.9375 143.1875 32.8125 145.5 C32.95587615 148.58258723 32.27441415 150.43502969 30.9375 153.1875 C31.5975 153.8475 32.2575 154.5075 32.9375 155.1875 C32.95024384 158.18654955 32.66301489 160.29981806 30.72509766 162.67089844 C29.11647564 164.20346145 27.45550086 165.63863719 25.75 167.0625 C18.45690263 173.36069681 18.45690263 173.36069681 12.9375 181.1875 C12.9375 182.1775 12.9375 183.1675 12.9375 184.1875 C15.86094852 186.45081498 18.81823094 187.47859828 22.3125 188.5 C25.81634031 189.57899718 27.92103592 190.8406223 30.5625 193.375 C33.18783361 195.83738186 33.573177 196.16762784 37.375 196.375 C38.550625 196.313125 39.72625 196.25125 40.9375 196.1875 C44.4212452 197.17561682 47.70229152 198.56989576 50.9375 200.1875 C52.61404729 199.90807545 54.28358154 199.57921753 55.9375 199.1875 C55.9065625 197.33125 55.9065625 197.33125 55.875 195.4375 C55.85352686 192.99385623 55.89047272 191.32466289 56.6875 189 C57.18863381 186.93069937 57.18863381 186.93069937 55.125 184.75 C54.403125 183.904375 53.68125 183.05875 52.9375 182.1875 C50.68397304 177.91765944 49.83414358 173.00218647 49.9375 168.1875 C50.921875 165.91015625 50.921875 165.91015625 51.9375 164.1875 C52.9275 164.5175 53.9175 164.8475 54.9375 165.1875 C55.04707031 166.15171875 55.15664062 167.1159375 55.26953125 168.109375 C55.42808594 169.37265625 55.58664063 170.6359375 55.75 171.9375 C55.97623047 173.81695312 55.97623047 173.81695312 56.20703125 175.734375 C56.92659049 179.13592775 57.53518942 180.73808529 59.9375 183.1875 C62.52248512 184.45597685 62.52248512 184.45597685 64.9375 185.1875 C64.66035156 185.77917969 64.38320312 186.37085938 64.09765625 186.98046875 C61.37975847 192.87796431 61.37975847 192.87796431 59.9375 199.1875 C61.05125 199.47625 62.165 199.765 63.3125 200.0625 C66.9375 201.1875 66.9375 201.1875 68.9375 203.1875 C68.5625 205.8125 68.5625 205.8125 67.9375 208.1875 C64.00108515 208.36642795 61.29431196 208.34545055 57.9375 206.1875 C57.2775 205.5275 56.6175 204.8675 55.9375 204.1875 C55.2775 204.1875 54.6175 204.1875 53.9375 204.1875 C53.9375 205.8375 53.9375 207.4875 53.9375 209.1875 C52.6175 209.1875 51.2975 209.1875 49.9375 209.1875 C48.20276288 207.24624656 46.5329349 205.24477132 44.9375 203.1875 C41.4506819 201.44409095 39.80829464 201.36257655 35.9375 202.1875 C33.82850383 205.05322728 32.22785996 208.03519121 30.56640625 211.1796875 C28.67705031 214.66842629 27.12748474 216.8596733 23.9375 219.1875 C21.625 219 21.625 219 19.9375 218.1875 C21.87700489 213.98847192 24.56467744 210.44643262 27.28125 206.72265625 C28.88531549 204.26737677 29.95222757 201.94133644 30.9375 199.1875 C30.36515625 198.91164062 29.7928125 198.63578125 29.203125 198.3515625 C26.94785733 197.19282152 24.82893622 195.91874294 22.6875 194.5625 C21.98109375 194.11648437 21.2746875 193.67046875 20.546875 193.2109375 C20.01578125 192.87320313 19.4846875 192.53546875 18.9375 192.1875 C18.82792969 192.92355469 18.71835938 193.65960938 18.60546875 194.41796875 C17.10843848 200.6249539 12.78865064 205.13174327 7.5 208.51171875 C-2.27620126 214.33237963 -2.27620126 214.33237963 -7.0625 215.1875 C-3.74163229 217.95750825 -3.74163229 217.95750825 -0.0625 220.1875 C-0.0625 221.1775 -0.0625 222.1675 -0.0625 223.1875 C-4.11230342 223.58453955 -6.27809347 223.79541506 -9.5625 221.25 C-10.95393802 219.54548842 -12.33056966 217.82742618 -13.64453125 216.0625 C-17.16103959 211.36323829 -20.46017178 207.95179842 -25.265625 204.58984375 C-29.08497737 201.60908831 -31.15666855 197.86294719 -32.0625 193.1875 C-33.2325122 176.58946492 -32.94169619 159.79520986 -24.0625 145.1875 C-20.83876323 143.03834215 -19.79546326 142.80463197 -16.0625 143.1875 C-13.30026722 145.94973278 -13.48393709 148.39456617 -13.0625 152.1875 C-11.3757557 148.50611363 -10.79022416 145.60556576 -10.8125 141.5625 C-10.80734375 140.62148437 -10.8021875 139.68046875 -10.796875 138.7109375 C-10.89082693 135.94174779 -10.89082693 135.94174779 -13.0625 133.1875 C-13.28955078 130.3684082 -13.28955078 130.3684082 -13.2578125 126.98828125 C-13.25136719 125.77978516 -13.24492188 124.57128906 -13.23828125 123.32617188 C-13.21314453 121.4322168 -13.21314453 121.4322168 -13.1875 119.5 C-13.17847656 118.22576172 -13.16945313 116.95152344 -13.16015625 115.63867188 C-13.13655641 112.48809373 -13.10363194 109.33789017 -13.0625 106.1875 C-13.7225 106.1875 -14.3825 106.1875 -15.0625 106.1875 C-15.145 107.05375 -15.2275 107.92 -15.3125 108.8125 C-16.43739138 113.87451121 -18.87250238 116.99750238 -22.5 120.625 C-25.0625 122.1875 -25.0625 122.1875 -27.5625 122.4375 C-32.25967627 120.08891187 -34.45250963 115.0174711 -36.0625 110.1875 C-41.122585 117.02798528 -45.64762914 123.87702782 -49.4375 131.5 C-49.91896484 132.46679688 -49.91896484 132.46679688 -50.41015625 133.453125 C-55.52237845 143.76116514 -55.52237845 143.76116514 -54.51953125 154.90625 C-53.87917296 158.10256831 -53.96985356 161.18168497 -54 164.4375 C-54.00902344 165.70078125 -54.01804688 166.9640625 -54.02734375 168.265625 C-54.03894531 169.22984375 -54.05054688 170.1940625 -54.0625 171.1875 C-52.639375 171.1565625 -52.639375 171.1565625 -51.1875 171.125 C-48.0625 171.1875 -48.0625 171.1875 -46.0625 172.1875 C-46.0625 173.5075 -46.0625 174.8275 -46.0625 176.1875 C-48.0425 176.1875 -50.0225 176.1875 -52.0625 176.1875 C-51.87300781 177.00476563 -51.68351562 177.82203125 -51.48828125 178.6640625 C-50.977847 182.88802299 -51.47492884 186.40872503 -52.25 190.5625 C-52.38656006 191.31474854 -52.52312012 192.06699707 -52.66381836 192.84204102 C-53.87817276 199.07771362 -55.43728697 204.56228697 -60.0625 209.1875 C-69.18932539 209.626994 -78.83877413 207.53128298 -86.0625 201.8125 C-90.08228823 196.53652795 -91.53770935 191.54479979 -92.4375 185.0625 C-94.18988304 174.20077685 -96.46375819 165.70839226 -105.4453125 158.77734375 C-107.0625 157.1875 -107.0625 157.1875 -107.75 153.4375 C-107.01431777 149.95972944 -106.47958846 149.50387644 -104.0625 147.1875 C-104.083125 146.218125 -104.10375 145.24875 -104.125 144.25 C-104.0625 141.1875 -104.0625 141.1875 -102.125 139.125 C-101.444375 138.485625 -100.76375 137.84625 -100.0625 137.1875 C-99.26568682 134.54565459 -99.26568682 134.54565459 -99.0625 132.1875 C-98.0725 131.8575 -97.0825 131.5275 -96.0625 131.1875 C-95.5675 130.1975 -95.5675 130.1975 -95.0625 129.1875 C-95.0625 129.8475 -95.0625 130.5075 -95.0625 131.1875 C-93.70125 131.373125 -93.70125 131.373125 -92.3125 131.5625 C-89.47279677 132.10859677 -87.53659409 132.76013803 -85.0625 134.1875 C-85.5575 133.1975 -85.5575 133.1975 -86.0625 132.1875 C-86.25 129.1875 -86.25 129.1875 -86.0625 126.1875 C-84.0625 124.1875 -84.0625 124.1875 -81.875 123.625 C-77.23278752 124.5534425 -74.86501403 127.50419585 -72.0625 131.1875 C-68.86109167 136.61628638 -66.0503862 141.91557136 -65.0625 148.1875 C-63.7425 148.1875 -62.4225 148.1875 -61.0625 148.1875 C-60.95035156 147.66285156 -60.83820312 147.13820312 -60.72265625 146.59765625 C-57.4632631 133.79441911 -50.28242755 122.51187634 -42.38378906 112.09277344 C-39.22617292 107.78829909 -37.68350346 103.93445264 -36.85546875 98.6875 C-36.0625 96.1875 -36.0625 96.1875 -33.35546875 93.6328125 C-31.42182 91.44309067 -31.05668024 90.52956219 -31.10717773 87.56152344 C-31.66852527 84.35039652 -32.38631684 81.22230649 -33.1875 78.0625 C-35.16247138 69.73940632 -36.59907041 61.74267937 -37.0625 53.1875 C-38.0525 53.52523437 -39.0425 53.86296875 -40.0625 54.2109375 C-58.76882162 60.55218392 -58.76882162 60.55218392 -66.0625 60.1875 C-64.5544956 44.04777719 -49.67435837 27.66593014 -38.9375 16.23828125 C-37.16792593 14.30280961 -35.59706534 12.31191389 -34.0625 10.1875 C-35.3825 9.8575 -36.7025 9.5275 -38.0625 9.1875 C-37.7325 8.1975 -37.4025 7.2075 -37.0625 6.1875 C-35.12890625 5.4140625 -35.12890625 5.4140625 -32.625 4.8125 C-28.76639523 3.78901193 -25.64350619 2.48846385 -22.1875 0.5 C-14.95935639 -3.24456419 -7.46494724 -3.12655258 0 0 Z M-33.8359375 15.33203125 C-44.39369068 26.15927663 -56.20138667 40.60416001 -61.0625 55.1875 C-54.99879658 54.58252042 -49.40735758 53.3241972 -43.5625 51.625 C-42.74007812 51.39103516 -41.91765625 51.15707031 -41.0703125 50.91601562 C-39.06620942 50.34507928 -37.06413409 49.76703295 -35.0625 49.1875 C-34.98773438 49.88488281 -34.91296875 50.58226562 -34.8359375 51.30078125 C-33.74291569 60.0771034 -32.05472843 68.72042882 -30.25 77.375 C-30.01394043 78.5813208 -29.77788086 79.7876416 -29.53466797 81.03051758 C-29.16752686 82.73824341 -29.16752686 82.73824341 -28.79296875 84.48046875 C-28.58051514 85.5068042 -28.36806152 86.53313965 -28.14916992 87.59057617 C-26.75366 90.92556584 -25.31648917 91.72576611 -22.0625 93.1875 C-9.84425633 94.73747148 -0.04666661 91.97227565 9.87890625 84.7890625 C10.89791016 83.99628906 10.89791016 83.99628906 11.9375 83.1875 C12.58589844 82.72085938 13.23429687 82.25421875 13.90234375 81.7734375 C15.93879644 79.97249295 16.93661309 78.72888242 17.9375 76.1875 C17.97482151 71.06201262 16.96874568 66.18516425 15.9375 61.1875 C15.6590262 59.70121563 15.38432377 58.21422 15.11328125 56.7265625 C14.60267924 53.93203056 14.0721746 51.14274388 13.5234375 48.35546875 C12.9375 45.1875 12.9375 45.1875 12.9375 43.1875 C14.3915625 43.2803125 14.3915625 43.2803125 15.875 43.375 C20.42862638 43.36570688 24.9265475 42.37677754 28.9375 40.1875 C30.45084548 37.85037624 31.00575083 36.78469479 30.6875 34 C30.08741567 31.98934414 30.08741567 31.98934414 27.9375 31.1875 C22.74775359 30.78828874 19.30841302 31.27355799 14.9375 34.1875 C13.97705898 36.26440578 13.97705898 36.26440578 13.9375 38.1875 C10.06833569 36.89777856 9.82884983 35.62317844 8 32.0625 C6.27947494 28.7584071 4.55604181 25.49801422 2.625 22.3125 C1.06933059 19.43163072 0.48077958 17.36111337 -0.0625 14.1875 C-0.75214844 14.13851562 -1.44179687 14.08953125 -2.15234375 14.0390625 C-7.60196979 13.60548457 -12.79075134 12.9468076 -18.08984375 11.58984375 C-23.9484584 10.39491839 -29.16546563 11.72063821 -33.8359375 15.33203125 Z M19.9375 79.1875 C19.47601563 79.76757812 19.01453125 80.34765625 18.5390625 80.9453125 C10.52682292 90.54099864 1.81051786 94.71943637 -10.0625 98.1875 C-4.05357566 108.91086436 -4.05357566 108.91086436 5.375 116.3125 C9.75640326 116.09877301 13.44402007 113.78835431 16.39428711 110.62597656 C17.73075256 108.87393792 18.97151184 107.08753625 20.1875 105.25 C20.60773438 104.64220703 21.02796875 104.03441406 21.4609375 103.40820312 C22.64457689 101.68299289 23.79594776 99.94075585 24.9375 98.1875 C25.53175781 97.28773437 26.12601563 96.38796875 26.73828125 95.4609375 C28.54487836 92.03605307 27.90599528 89.86778208 26.9375 86.1875 C24.45360556 81.49920099 24.45360556 81.49920099 19.9375 79.1875 Z M-30.0625 94.1875 C-30.73917998 95.43210783 -31.40344719 96.68346896 -32.0625 97.9375 C-32.43375 98.63359375 -32.805 99.3296875 -33.1875 100.046875 C-34.31474649 102.41917757 -34.31474649 102.41917757 -34.0625 106.1875 C-33.0725 106.6825 -33.0725 106.6825 -32.0625 107.1875 C-30.9921875 109.47265625 -30.9921875 109.47265625 -29.9375 112.25 C-29.58429688 113.16910156 -29.23109375 114.08820313 -28.8671875 115.03515625 C-28.60164063 115.74542969 -28.33609375 116.45570313 -28.0625 117.1875 C-26.12392354 116.91582648 -26.12392354 116.91582648 -24.0625 116.1875 C-20.54278714 110.9612597 -17.0625 104.58943249 -17.0625 98.1875 C-18.8527061 97.51692113 -20.64471489 96.8511531 -22.4375 96.1875 C-23.43523437 95.81625 -24.43296875 95.445 -25.4609375 95.0625 C-27.92098061 94.08123723 -27.92098061 94.08123723 -30.0625 94.1875 Z M-83.0625 128.1875 C-81.89694813 132.10799266 -80.35786733 135.65291645 -78.5625 139.3125 C-75.84742258 145.13509966 -74.80475912 150.83952275 -74.0625 157.1875 C-77.0625 156.1875 -77.0625 156.1875 -78.89453125 152.765625 C-79.89906074 150.60878237 -80.87357194 148.4407211 -81.83789062 146.265625 C-84.17029128 141.28006132 -86.3850059 138.19577072 -91.0625 135.1875 C-93.38421592 135.22125833 -93.38421592 135.22125833 -95.0625 136.1875 C-94.53140625 136.744375 -94.0003125 137.30125 -93.453125 137.875 C-83.0625 149.09990876 -83.0625 149.09990876 -83.0625 156.1875 C-86.57439618 155.01686794 -86.88637897 153.88784235 -88.75390625 150.88671875 C-91.23295339 147.66765754 -94.61201168 145.29364222 -98.0625 143.1875 C-98.7225 143.1875 -99.3825 143.1875 -100.0625 143.1875 C-98.61711602 146.58264675 -96.78650273 148.54138724 -94.0625 151 C-90.32373051 154.61007996 -88.91132037 157.09457778 -88.0625 162.1875 C-92.34803341 160.04473329 -94.72320112 157.37553701 -97.53515625 153.61328125 C-99.20159385 151.73257676 -99.20159385 151.73257676 -103.0625 152.1875 C-102.46346114 155.8750899 -102.13909541 156.13042891 -98.875 158.5625 C-90.55067274 165.41682286 -88.44351426 177.22618229 -87.08691406 187.41333008 C-86.30500959 193.04077394 -84.92519809 196.56360936 -80.625 200.3125 C-75.57599737 203.42838323 -68.75258974 205.29090006 -62.83203125 205.125 C-60.79601538 204.26862152 -60.79601538 204.26862152 -59.83203125 201.66796875 C-57.6446918 194.14173547 -56.3449638 187.02587038 -56.0625 179.1875 C-56.3925 180.5075 -56.7225 181.8275 -57.0625 183.1875 C-58.3825 183.1875 -59.7025 183.1875 -61.0625 183.1875 C-60.918125 182.33929688 -60.77375 181.49109375 -60.625 180.6171875 C-57.67520362 165.8853666 -57.67520362 165.8853666 -61.0625 152.1875 C-61.7225 152.1875 -62.3825 152.1875 -63.0625 152.1875 C-63.09988281 152.90035156 -63.13726562 153.61320312 -63.17578125 154.34765625 C-63.57879145 160.21896177 -64.05592201 165.06518194 -67.0625 170.1875 C-69.16796875 170.8671875 -69.16796875 170.8671875 -71.0625 171.1875 C-70.588125 170.135625 -70.11375 169.08375 -69.625 168 C-66.66664971 159.8966927 -65.93584277 151.98632917 -69.125 143.875 C-71.93400789 137.95097499 -75.42913037 132.82086963 -80.0625 128.1875 C-81.0525 128.1875 -82.0425 128.1875 -83.0625 128.1875 Z M12.9375 134.1875 C1.0338782 141.36344222 -7.13657555 151.4247732 -15.66796875 162.21875 C-16.75895288 163.57528159 -17.90379009 164.8883404 -19.0625 166.1875 C-19.7225 166.1875 -20.3825 166.1875 -21.0625 166.1875 C-20.91941406 165.67703125 -20.77632813 165.1665625 -20.62890625 164.640625 C-19.88713346 161.42798149 -19.45352904 158.20290909 -19 154.9375 C-18.82339844 153.67421875 -18.64679688 152.4109375 -18.46484375 151.109375 C-18.33207031 150.14515625 -18.19929688 149.1809375 -18.0625 148.1875 C-20.9364319 149.20359726 -21.89059298 149.8375063 -23.2578125 152.62109375 C-27.42631261 166.08990293 -31.66830861 182.74353094 -26.0234375 196.44140625 C-24.42063617 199.35381355 -22.65375807 201.09244028 -20.0625 203.1875 C-19.30324219 203.81140625 -18.54398438 204.4353125 -17.76171875 205.078125 C-12.677835 209.02181508 -12.677835 209.02181508 -6.5625 210.5 C2.46444418 207.11489593 10.13689889 202.17060237 14.3125 193.25 C14.51875 192.569375 14.725 191.88875 14.9375 191.1875 C11.88169026 188.59972792 11.88169026 188.59972792 7.9375 188.1875 C6.24951173 189.62500191 6.24951173 189.62500191 4.9375 191.1875 C4.9375 179.64408972 15.85078161 170.1709183 23.5 162.5 C24.97410339 161.05730825 26.45136193 159.61779155 27.9375 158.1875 C25.94693616 156.9010654 25.94693616 156.9010654 23.73046875 157.89453125 C22.87066406 158.25933594 22.01085937 158.62414062 21.125 159 C20.27292969 159.35707031 19.42085937 159.71414062 18.54296875 160.08203125 C17.68316406 160.44683594 16.82335937 160.81164062 15.9375 161.1875 C11.18835911 163.1875 11.18835911 163.1875 8.9375 163.1875 C10.22290939 159.33127182 11.70691277 158.7909383 15.125 156.6875 C16.61193359 155.76517578 16.61193359 155.76517578 18.12890625 154.82421875 C20.9375 153.1875 20.9375 153.1875 24.5625 151.5 C27.11321587 150.41748107 27.11321587 150.41748107 27.8125 148 C27.85375 147.401875 27.895 146.80375 27.9375 146.1875 C21.46341441 147.36460647 16.99741123 150.69113272 11.70703125 154.5078125 C8.9375 156.1875 8.9375 156.1875 4.9375 156.1875 C11.18713589 149.73626295 17.99803065 143.88142357 24.9375 138.1875 C23.01799519 136.93411345 23.01799519 136.93411345 21.1953125 137.76171875 C15.12115666 140.9322946 10.75828019 145.06424146 6.18798828 150.0847168 C3.25851402 153.22034653 1.29531058 154.90122047 -3.0625 155.1875 C-0.89769822 150.72259634 2.14586551 148.16163344 5.86328125 145.03515625 C8.8938823 142.3355813 11.37338143 139.32854525 13.9375 136.1875 C13.4425 135.1975 13.4425 135.1975 12.9375 134.1875 Z " fill="#343434" transform="translate(121.0625,24.8125)"/>
<path d="M0 0 C2.875 0.8125 2.875 0.8125 4.875 2.8125 C4.75748295 8.92338675 3.03734766 11.65015234 -1.125 15.8125 C-4.20447074 18.14865022 -7.45210873 18.24055812 -11.21875 18.12109375 C-13.125 17.8125 -13.125 17.8125 -15.625 16.25 C-17.67708345 12.9153644 -17.62281887 10.652817 -17.125 6.8125 C-14.125 4.8125 -14.125 4.8125 -10.6875 3.875 C-7.1789202 3.07791158 -7.1789202 3.07791158 -5.0625 1.125 C-3.125 -0.1875 -3.125 -0.1875 0 0 Z " fill="#333333" transform="translate(109.125,71.1875)"/>
<path d="M0 0 C3.24889654 0.23206404 4.05564244 1.06337056 6.25 3.5625 C8.46256348 7.90860683 8.48142466 10.18575341 8 15 C6 17 6 17 3 17.3125 C2.01 17.209375 1.02 17.10625 0 17 C-2.49729916 13.25405125 -2.2965629 11.44844343 -2 7 C-1.45980238 4.60170883 -0.76471055 2.34192605 0 0 Z " fill="#9ED5F0" transform="translate(117,53)"/>
<path d="M0 0 C2.64 0 5.28 0 8 0 C8.33 1.32 8.66 2.64 9 4 C5.52176885 5.15941038 3.54104422 4.70820884 0 4 C0 2.68 0 1.36 0 0 Z " fill="#333333" transform="translate(100,44)"/>
<path d="M0 0 C-0.33 1.65 -0.66 3.3 -1 5 C-3.31 5 -5.62 5 -8 5 C-7.6875 3.0625 -7.6875 3.0625 -7 1 C-4 0 -4 0 0 0 Z " fill="#333333" transform="translate(109,217)"/>
<path d="M0 0 C-0.75 4.75 -0.75 4.75 -3 7 C-5.125 6.625 -5.125 6.625 -7 6 C-6.6875 4.125 -6.6875 4.125 -6 2 C-3 0 -3 0 0 0 Z " fill="#333333" transform="translate(90,46)"/>
<path d="M0 0 C-0.33 1.65 -0.66 3.3 -1 5 C-2.98 5.33 -4.96 5.66 -7 6 C-6.6875 4.125 -6.6875 4.125 -6 2 C-3 0 -3 0 0 0 Z " fill="#333333" transform="translate(146,58)"/>
<path d="M0 0 C2.0625 0.4375 2.0625 0.4375 4 1 C4 2.98 4 4.96 4 7 C2.68 6.67 1.36 6.34 0 6 C-0.38218767 4.34385343 -0.71395102 2.67542976 -1 1 C-0.67 0.67 -0.34 0.34 0 0 Z " fill="#333333" transform="translate(90,55)"/>
<path d="M0 0 C0.99 0.33 1.98 0.66 3 1 C3 2.98 3 4.96 3 7 C1.68 7 0.36 7 -1 7 C-1.04254356 5.00045254 -1.04080783 2.99958364 -1 1 C-0.67 0.67 -0.34 0.34 0 0 Z " fill="#333333" transform="translate(103,53)"/>
<path d="M0 0 C0.99 0.33 1.98 0.66 3 1 C-0.96 4.465 -0.96 4.465 -5 8 C-5.66 7.67 -6.32 7.34 -7 7 C-4.69 4.69 -2.38 2.38 0 0 Z " fill="#3B3C3C" transform="translate(84,39)"/>
<path d="M0 0 C3.14027363 0.33645789 4.05098295 1.05236086 6.3125 3.375 C6.869375 4.24125 7.42625 5.1075 8 6 C7.67 6.99 7.34 7.98 7 9 C5.83037314 7.69013727 4.66437056 6.3770374 3.5 5.0625 C2.8503125 4.33160156 2.200625 3.60070312 1.53125 2.84765625 C0 1 0 1 0 0 Z " fill="#E6E6E7" transform="translate(42,149)"/>
<path d="M0 0 C0.99 1.485 0.99 1.485 2 3 C3.95216435 4.95216435 5.53199953 5.84826645 8 7 C5.36 7.33 2.72 7.66 0 8 C0 5.36 0 2.72 0 0 Z " fill="#E9EAEB" transform="translate(140,45)"/>
<path d="M0 0 C1.65 0 3.3 0 5 0 C4.34 1.32 3.68 2.64 3 4 C1.68 3.67 0.36 3.34 -1 3 C-0.67 2.01 -0.34 1.02 0 0 Z " fill="#464646" transform="translate(84,31)"/>
<path d="M0 0 C3.36720387 1.39332574 4.9859524 2.9789286 7 6 C3.75728494 5.4409112 2.06942576 4.5867822 0 2 C0 1.34 0 0.68 0 0 Z " fill="#4A4A4A" transform="translate(192,141)"/>
</svg>
