<svg xmlns="http://www.w3.org/2000/svg" width="95" height="18" viewBox="0 0 95 18" fill="none">
<path d="M0.0224609 3.26147H6.50894C8.10669 3.26147 9.36578 3.69564 10.1603 4.49885C10.4758 4.8068 10.724 5.17688 10.8892 5.58567C11.0543 5.99445 11.1329 6.43306 11.1198 6.87376V6.91284C11.1362 7.53856 10.9716 8.15569 10.6458 8.69016C10.32 9.22464 9.84692 9.65374 9.28329 9.92596C10.9027 10.5468 11.8883 11.4846 11.8883 13.3602V13.3993C11.8883 15.9522 9.80863 17.233 6.65656 17.233H0.0224609V3.26147ZM5.84901 8.90567C7.20796 8.90567 8.06761 8.4715 8.06761 7.42515V7.38608C8.06761 6.46998 7.34689 5.94898 6.04873 5.94898H3.00954V8.90567H5.84901ZM6.66959 14.5499C8.02854 14.5499 8.84043 14.0723 8.84043 13.0346V12.9912C8.84043 12.0534 8.14142 11.4759 6.56539 11.4759H3.01823V14.5499H6.66959Z" fill="#640817"/>
<path d="M29.1948 6.19879V17.1008H32.1862V3.51562L29.1948 6.19879Z" fill="#640817"/>
<path d="M35.008 10.544V10.5006C34.9913 9.56928 35.1633 8.6442 35.5138 7.78115C35.8642 6.91811 36.3858 6.13496 37.0471 5.47895C37.7084 4.82293 38.4957 4.30762 39.3615 3.96409C40.2274 3.62056 41.1538 3.45592 42.085 3.48011C44.6466 3.48011 46.1792 4.34844 47.4383 5.5728L45.5409 7.76535C44.4903 6.81452 43.4222 6.23274 42.0676 6.23274C39.7795 6.23274 38.1297 8.1344 38.1297 10.4615V10.5006C38.1297 12.8278 39.7405 14.7685 42.0676 14.7685C43.6176 14.7685 44.5684 14.1476 45.6365 13.1751L47.5381 15.0985C46.8538 15.8978 45.9967 16.5312 45.0318 16.9509C44.0668 17.3706 43.0191 17.5656 41.9677 17.5211C41.0482 17.5359 40.1352 17.3653 39.283 17.0197C38.4308 16.674 37.6569 16.1604 37.0075 15.5093C36.358 14.8582 35.8463 14.0831 35.5028 13.23C35.1593 12.377 34.991 11.4635 35.008 10.544Z" fill="#640817"/>
<path d="M56.9252 9.47387L62.4521 3.7168H58.8442L53.4648 9.51295L55.7659 12.6911L59.1134 17.2889H62.704L56.9252 9.47387Z" fill="#640817"/>
<path d="M53.329 3.70728H50.355V17.2924H53.329V3.70728Z" fill="#640817"/>
<path d="M23.0987 12.4423C23.9776 12.1554 24.7381 11.588 25.2636 10.8273C25.7891 10.0666 26.0504 9.15446 26.0076 8.23088V8.19181C26.0302 7.62361 25.9389 7.05664 25.7391 6.52426C25.5393 5.99188 25.2349 5.50485 24.8441 5.09184C23.9497 4.19745 22.6124 3.71118 20.8888 3.71118H14.6802V17.2876H17.6846V6.40737H20.637C22.0914 6.40737 22.9815 7.06731 22.9815 8.34811V8.38718C22.9815 9.53339 22.1479 10.3062 20.6934 10.3062H18.2317L22.925 17.2876H26.3984L23.0987 12.4423Z" fill="#640817"/>
<path d="M91.0599 12.3847C91.9393 12.0999 92.7005 11.5337 93.2262 10.7734C93.7519 10.0131 94.0129 9.10095 93.9688 8.17765V8.13858C93.992 7.56966 93.901 7.00187 93.7011 6.4687C93.5013 5.93553 93.1967 5.4478 92.8053 5.03427C91.9152 4.13989 90.578 3.65796 88.85 3.65796H82.6631V17.2344H85.6458V6.35414H88.6155C90.07 6.35414 90.96 7.01408 90.96 8.29054V8.32961C90.96 9.47582 90.1264 10.2486 88.672 10.2486H86.2102L90.9036 17.2344H94.377L91.0599 12.3847Z" fill="#640817"/>
<path d="M72.5982 0L65.1436 11.779L65.1696 17.2886L72.6243 5.69195L80.1354 17.2886L80.2222 12.1046L72.5982 0Z" fill="#640817"/>
<path d="M74.0617 13.7209H71.3047V17.2898H74.0617V13.7209Z" fill="#640817"/>
</svg>