<svg xmlns="http://www.w3.org/2000/svg" xmlns:xlink="http://www.w3.org/1999/xlink" version="1.1" width="1080" height="1080" viewBox="0 0 1080 1080" xml:space="preserve">
<desc>Created with Fabric.js 5.2.4</desc>
<defs>
</defs>
<rect x="0" y="0" width="100%" height="100%" fill="transparent"/>
<g transform="matrix(0 0 0 0 0 0)" id="2742b674-0e8d-4724-83b6-1d526127f89b">
</g>
<g transform="matrix(1 0 0 1 540 540)" id="5a8eca2a-2e13-48e1-acd2-41ba07104198">
<rect style="stroke: none; stroke-width: 1; stroke-dasharray: none; stroke-linecap: butt; stroke-dashoffset: 0; stroke-linejoin: miter; stroke-miterlimit: 4; fill: rgb(255,255,255); fill-rule: nonzero; opacity: 1; visibility: hidden;" vector-effect="non-scaling-stroke" x="-540" y="-540" rx="0" ry="0" width="1080" height="1080"/>
</g>
<g transform="matrix(169.4 0 0 169.4 519.08 2078.81)">
<path style="stroke: none; stroke-width: 1; stroke-dasharray: none; stroke-linecap: butt; stroke-dashoffset: 0; stroke-linejoin: miter; stroke-miterlimit: 4; fill: rgb(100,8,23); fill-rule: nonzero; opacity: 1;" transform=" translate(-1.68, -2.51)" d="M 3.06166 0.721069 L 0.304688 0.721069 L 0.304688 4.28994 L 3.06166 4.28994 L 3.06166 0.721069 Z" stroke-linecap="round"/>
</g>
<g transform="matrix(54.72 0 0 54.72 517.25 522.89)">
<path style="stroke: none; stroke-width: 1; stroke-dasharray: none; stroke-linecap: butt; stroke-dashoffset: 0; stroke-linejoin: miter; stroke-miterlimit: 4; fill: rgb(100,8,23); fill-rule: nonzero; opacity: 1;" vector-effect="non-scaling-stroke" transform=" translate(-72.68, -8.64)" d="M 72.5982 0 L 65.1436 11.779 L 65.1696 17.2886 L 72.6243 5.69195 L 80.1354 17.2886 L 80.2222 12.1046 L 72.5982 0 Z" stroke-linecap="round"/>
</g>
<g transform="matrix(54.72 0 0 54.72 517.22 898.35)">
<path style="stroke: none; stroke-width: 1; stroke-dasharray: none; stroke-linecap: butt; stroke-dashoffset: 0; stroke-linejoin: miter; stroke-miterlimit: 4; fill: rgb(100,8,23); fill-rule: nonzero; opacity: 1;" vector-effect="non-scaling-stroke" transform=" translate(-72.68, -15.51)" d="M 74.0617 13.7209 L 71.3047 13.7209 L 71.3047 17.2898 L 74.0617 17.2898 L 74.0617 13.7209 Z" stroke-linecap="round"/>
</g>
</svg>